<?xml version="1.0" standalone="no"?>
<!DOCTYPE svg PUBLIC "-//W3C//DTD SVG 20010904//EN"
 "http://www.w3.org/TR/2001/REC-SVG-20010904/DTD/svg10.dtd">
<svg version="1.0" xmlns="http://www.w3.org/2000/svg"
 width="206.000000pt" height="245.000000pt" viewBox="0 0 206.000000 245.000000"
 preserveAspectRatio="xMidYMid meet">

<g transform="translate(0.000000,245.000000) scale(0.100000,-0.100000)"
fill="#000000" stroke="none">
<path d="M1818 2430 c92 -7 138 -20 68 -20 -40 0 -41 -15 -2 -30 18 -8 17 -9
-11 -9 -17 -1 -33 -4 -35 -8 -1 -5 -23 -26 -48 -48 -25 -22 -44 -43 -42 -47 1
-5 -2 -7 -7 -5 -5 1 -23 -10 -40 -25 -17 -16 -35 -28 -40 -28 -10 0 -24 -34
-25 -60 -1 -8 -12 -17 -26 -20 -14 -4 -24 -12 -23 -18 2 -7 -1 -11 -6 -9 -15
4 -82 -64 -75 -75 4 -6 2 -8 -3 -5 -6 4 -18 -2 -28 -13 -10 -11 -24 -20 -32
-20 -8 0 -12 -4 -8 -9 3 -5 1 -12 -5 -16 -6 -4 -8 -11 -4 -16 3 -5 1 -8 -4 -7
-5 2 -24 -9 -41 -24 -17 -16 -35 -28 -40 -28 -11 0 -26 -39 -23 -57 2 -7 -7
-17 -18 -23 -16 -9 -20 -8 -20 6 0 15 -2 16 -17 2 -10 -9 -25 -18 -33 -21 -15
-5 -11 -6 36 -11 6 -1 18 -7 26 -13 11 -9 31 -10 84 -1 86 13 269 4 349 -17
78 -21 227 -94 288 -140 l47 -36 0 431 0 430 -167 -2 c-151 -1 -159 -2 -75 -8z
m-491 -646 c-3 -3 -12 -4 -19 -1 -8 3 -5 6 6 6 11 1 17 -2 13 -5z"/>
<path d="M56 2213 c80 -147 178 -306 182 -295 2 6 -5 23 -15 38 -17 27 -17 27
1 17 20 -11 56 -6 56 7 0 4 13 13 29 20 16 6 43 22 60 35 20 14 40 21 56 17
31 -6 33 6 3 17 l-23 9 25 10 24 9 -34 16 c-55 25 -251 108 -290 122 -19 7
-52 20 -73 30 l-38 16 37 -68z"/>
<path d="M468 2083 c7 -3 16 -2 19 1 4 3 -2 6 -13 5 -11 0 -14 -3 -6 -6z"/>
<path d="M1180 1816 c0 -2 7 -7 16 -10 8 -3 12 -2 9 4 -6 10 -25 14 -25 6z"/>
<path d="M2003 1397 c-4 -7 -25 -21 -45 -32 -21 -11 -38 -23 -38 -27 0 -5 -4
-8 -9 -8 -5 0 -36 -18 -69 -40 -33 -22 -65 -40 -71 -40 -6 0 -11 -6 -11 -12 0
-7 -18 -22 -40 -32 -22 -11 -40 -22 -40 -26 0 -4 -8 -10 -17 -14 -10 -3 -38
-21 -63 -40 -25 -19 -49 -35 -54 -35 -6 -1 -31 -19 -57 -41 -26 -22 -56 -40
-66 -41 -10 0 -38 -16 -63 -35 -25 -19 -53 -37 -62 -40 -10 -4 -18 -10 -18
-14 0 -4 -18 -15 -40 -26 -22 -10 -40 -25 -40 -31 0 -7 -8 -13 -17 -13 -10 0
-42 -18 -71 -40 -29 -22 -56 -40 -61 -40 -5 0 -11 -4 -13 -10 -5 -15 -153 -31
-258 -28 l-95 3 -13 75 c-8 45 -11 118 -9 182 4 100 3 109 -19 142 -13 19 -24
39 -24 45 0 5 -4 12 -8 15 -5 3 -7 -8 -4 -23 3 -22 0 -28 -15 -28 -10 0 -22 5
-26 11 -6 7 -7 4 -3 -7 3 -10 6 -23 6 -28 0 -4 7 -6 15 -3 8 4 15 1 15 -5 0
-6 -3 -11 -7 -12 -71 -8 -112 -32 -113 -66 0 -15 -6 -23 -17 -23 -21 -1 -63
-33 -63 -48 0 -6 -18 -23 -40 -39 -22 -15 -40 -33 -40 -40 0 -6 -18 -24 -40
-40 -22 -15 -40 -33 -40 -40 0 -6 -18 -24 -39 -40 -22 -15 -42 -36 -45 -46 -2
-10 -14 -21 -25 -24 -11 -3 -19 -9 -16 -13 9 -14 -23 -32 -45 -25 -11 3 -29 3
-40 0 -19 -6 -20 -15 -20 -326 l0 -319 1025 0 1025 0 0 700 0 700 -25 0 c-13
0 -28 -6 -32 -13z m-1359 -283 c5 -14 4 -15 -9 -4 -17 14 -19 20 -6 20 5 0 12
-7 15 -16z m-574 -474 c0 -5 20 -10 44 -10 l44 0 20 -65 c11 -36 41 -141 68
-235 27 -93 52 -166 55 -162 4 4 31 88 59 187 28 99 58 201 66 228 l16 47 49
0 49 0 0 -296 0 -295 -32 3 -33 3 -5 222 -5 222 -34 -117 c-103 -352 -93 -327
-128 -330 -23 -2 -34 2 -41 15 -5 10 -36 108 -68 218 l-59 200 -5 -215 -5
-215 -35 0 -35 0 0 297 c0 287 -1 298 -19 292 -12 -4 -16 -2 -12 5 9 14 46 15
46 1z m1509 -27 c14 -11 32 -39 40 -63 39 -122 -85 -224 -200 -164 -84 43 -75
200 14 240 41 18 111 12 146 -13z m371 12 c44 -23 67 -75 34 -75 -9 0 -25 11
-36 25 -27 34 -80 34 -113 0 -31 -31 -35 -110 -7 -145 33 -41 132 -21 132 27
0 7 9 13 20 13 11 0 20 -7 20 -16 0 -46 -53 -84 -119 -84 -125 0 -163 205 -48
255 42 19 81 18 117 0z m-1151 -113 c24 -64 46 -123 49 -129 2 -8 -4 -13 -18
-13 -16 0 -26 10 -37 40 -16 40 -17 40 -68 40 -52 0 -52 0 -64 -40 -9 -29 -17
-40 -31 -40 -11 0 -20 3 -20 8 0 4 21 62 47 129 44 112 50 123 73 123 23 0 29
-11 69 -118z m391 98 c23 -23 26 -58 6 -86 -8 -10 -11 -23 -7 -29 5 -5 11 -28
14 -50 3 -22 8 -48 12 -58 7 -16 3 -18 -21 -15 -27 3 -29 7 -34 53 l-5 50 -57
3 -57 3 -3 -53 c-3 -45 -6 -53 -23 -53 -19 0 -20 8 -23 128 l-3 127 91 0 c77
0 93 -3 110 -20z m-1156 -5 c-4 -8 -8 -15 -10 -15 -2 0 -4 7 -4 15 0 8 4 15
10 15 5 0 7 -7 4 -15z m1946 -324 c39 -28 51 -60 47 -120 -3 -47 -9 -59 -40
-88 -21 -19 -49 -34 -64 -35 -86 -4 -133 15 -157 66 -39 81 -1 177 79 199 34
10 109 -2 135 -22z m-1130 -1 c0 -18 -7 -20 -85 -20 l-85 0 0 -35 0 -35 80 0
c64 0 80 -3 80 -15 0 -12 -16 -15 -80 -15 l-80 0 0 -40 0 -40 90 0 c83 0 90
-1 90 -20 0 -19 -7 -20 -110 -20 l-110 0 0 130 0 130 105 0 c98 0 105 -1 105
-20z m380 1 c0 -17 -6 -19 -42 -18 l-43 2 -3 -112 c-3 -112 -3 -113 -27 -113
-24 0 -24 1 -27 113 -3 124 4 112 -70 116 -10 1 -18 8 -18 16 0 12 19 15 115
15 107 0 115 -1 115 -19z m368 2 c-3 -15 -16 -18 -86 -21 l-82 -3 0 -34 0 -35
80 0 c64 0 80 -3 80 -15 0 -12 -16 -15 -80 -15 l-80 0 0 -40 0 -40 85 0 c78 0
85 -2 85 -20 0 -19 -7 -20 -104 -20 l-105 0 -3 130 -3 130 108 0 c98 0 108 -2
105 -17z"/>
<path d="M1433 576 c-24 -21 -28 -31 -27 -75 1 -58 20 -86 66 -96 64 -15 108
28 108 106 0 80 -85 118 -147 65z"/>
<path d="M711 543 c-8 -21 -16 -44 -18 -50 -4 -9 6 -13 32 -13 34 0 37 2 31
25 -8 31 -25 75 -29 75 -2 0 -9 -17 -16 -37z"/>
<path d="M1040 560 l0 -40 55 0 c43 0 56 4 65 19 13 25 13 27 -6 45 -10 10
-33 16 -65 16 l-49 0 0 -40z"/>
<path d="M1838 255 c-57 -31 -55 -140 2 -170 62 -32 120 -11 140 50 32 95 -54
167 -142 120z"/>
<path d="M575 1239 c-4 -6 -5 -12 -2 -15 2 -3 7 2 10 11 7 17 1 20 -8 4z"/>
<path d="M586 1213 c-6 -14 -5 -15 5 -6 7 7 10 15 7 18 -3 3 -9 -2 -12 -12z"/>
<path d="M576 1175 c4 -8 11 -15 16 -15 6 0 5 6 -2 15 -7 8 -14 15 -16 15 -2
0 -1 -7 2 -15z"/>
<path d="M34 678 c-7 -11 18 -10 36 2 11 7 10 9 -8 7 -13 -1 -26 -5 -28 -9z"/>
</g>
</svg>
